<svg preserveAspectRatio="none" width="100%" height="100%" overflow="visible" style="display: block;" viewBox="0 0 35 34.1012" fill="none" xmlns="http://www.w3.org/2000/svg">
<g id="house 2">
<path id="Vector" d="M33.4673 18.9988C33.3524 19.085 33.2217 19.1477 33.0825 19.1833C32.9434 19.219 32.7986 19.2269 32.6564 19.2066C32.5142 19.1863 32.3774 19.1381 32.2538 19.065C32.1302 18.9918 32.0222 18.895 31.9361 18.7801C31.2768 17.8939 30.4187 17.175 29.4309 16.681C28.443 16.1871 27.353 15.932 26.2486 15.9363C26.0335 15.9363 25.8232 15.8729 25.644 15.754C25.4647 15.635 25.3246 15.4659 25.2409 15.2678C25.1842 15.1332 25.1549 14.9886 25.1549 14.8426C25.1549 14.6965 25.1842 14.5519 25.2409 14.4174C25.3246 14.2192 25.4647 14.0501 25.644 13.9312C25.8232 13.8123 26.0335 13.7488 26.2486 13.7488C26.8623 13.7488 27.4636 13.5766 27.9844 13.2519C28.5051 12.9272 28.9244 12.463 29.1945 11.9119C29.4647 11.3609 29.5749 10.7451 29.5126 10.1346C29.4503 9.52408 29.2181 8.94326 28.8422 8.45811C28.4664 7.97296 27.9621 7.60293 27.3865 7.39005C26.8109 7.17718 26.1871 7.12998 25.5861 7.25384C24.985 7.37769 24.4307 7.66762 23.9862 8.0907C23.5416 8.51378 23.2246 9.05305 23.0712 9.64726C23.0353 9.7864 22.9723 9.91711 22.8859 10.0319C22.7995 10.1467 22.6913 10.2434 22.5675 10.3164C22.4437 10.3894 22.3068 10.4373 22.1645 10.4574C22.0222 10.4774 21.8774 10.4693 21.7382 10.4334C21.5991 10.3975 21.4684 10.3345 21.3535 10.2481C21.2387 10.1617 21.1421 10.0535 21.0691 9.9297C20.9961 9.80592 20.9482 9.66897 20.9281 9.52668C20.908 9.38438 20.9162 9.23953 20.9521 9.10038C21.165 8.2764 21.5673 7.51348 22.127 6.87235C22.6867 6.23121 23.3883 5.72954 24.176 5.40727C24.9637 5.08499 25.8157 4.951 26.6642 5.01595C27.5128 5.0809 28.3345 5.34301 29.064 5.78141C29.7934 6.21982 30.4105 6.82242 30.8661 7.54127C31.3217 8.26012 31.6032 9.07537 31.6882 9.92217C31.7733 10.769 31.6595 11.6239 31.356 12.419C31.0525 13.2141 30.5677 13.9274 29.94 14.5021C31.4272 15.1461 32.7201 16.1679 33.6902 17.4662C33.7763 17.5814 33.8389 17.7125 33.8744 17.8519C33.9098 17.9913 33.9174 18.1364 33.8967 18.2787C33.876 18.4211 33.8274 18.558 33.7537 18.6816C33.6801 18.8051 33.5827 18.9129 33.4673 18.9988ZM26.1009 27.4207C26.18 27.5452 26.2332 27.6844 26.2571 27.8299C26.2811 27.9755 26.2753 28.1244 26.2402 28.2677C26.2051 28.411 26.1414 28.5457 26.0529 28.6637C25.9644 28.7817 25.8529 28.8806 25.7252 28.9544C25.5975 29.0282 25.4562 29.0754 25.3098 29.0932C25.1633 29.111 25.0148 29.099 24.8731 29.0579C24.7315 29.0168 24.5996 28.9475 24.4854 28.8541C24.3712 28.7607 24.2771 28.6452 24.2087 28.5144C23.5197 27.3478 22.5384 26.3809 21.3617 25.7093C20.185 25.0376 18.8535 24.6843 17.4986 24.6843C16.1436 24.6843 14.8121 25.0376 13.6354 25.7093C12.4587 26.3809 11.4774 27.3478 10.7884 28.5144C10.72 28.6452 10.6259 28.7607 10.5117 28.8541C10.3976 28.9475 10.2657 29.0168 10.124 29.0579C9.98232 29.099 9.8338 29.111 9.68737 29.0932C9.54093 29.0754 9.3996 29.0282 9.27189 28.9544C9.14418 28.8806 9.03272 28.7817 8.94422 28.6637C8.85572 28.5457 8.792 28.411 8.75691 28.2677C8.72181 28.1244 8.71606 27.9755 8.74 27.8299C8.76395 27.6844 8.81708 27.5452 8.89622 27.4207C9.95661 25.5987 11.5734 24.165 13.5091 23.3301C12.4199 22.4961 11.6194 21.3418 11.2202 20.0294C10.8209 18.717 10.843 17.3125 11.2832 16.0133C11.7235 14.7141 12.5598 13.5855 13.6746 12.7861C14.7895 11.9868 16.1268 11.5569 17.4986 11.5569C18.8704 11.5569 20.2077 11.9868 21.3225 12.7861C22.4373 13.5855 23.2737 14.7141 23.7139 16.0133C24.1542 17.3125 24.1762 18.717 23.777 20.0294C23.3777 21.3418 22.5772 22.4961 21.488 23.3301C23.4237 24.165 25.0405 25.5987 26.1009 27.4207ZM17.4986 22.4988C18.3639 22.4988 19.2097 22.2422 19.9292 21.7615C20.6486 21.2808 21.2094 20.5975 21.5405 19.7981C21.8717 18.9986 21.9583 18.119 21.7895 17.2703C21.6207 16.4216 21.204 15.6421 20.5922 15.0302C19.9803 14.4184 19.2008 14.0017 18.3521 13.8329C17.5034 13.6641 16.6238 13.7507 15.8243 14.0818C15.0249 14.413 14.3416 14.9737 13.8609 15.6932C13.3802 16.4127 13.1236 17.2585 13.1236 18.1238C13.1236 19.2841 13.5845 20.3969 14.405 21.2174C15.2254 22.0379 16.3382 22.4988 17.4986 22.4988ZM9.84232 14.8426C9.84232 14.5525 9.72708 14.2743 9.52196 14.0692C9.31684 13.8641 9.03865 13.7488 8.74856 13.7488C8.13487 13.7488 7.53349 13.5766 7.01274 13.2519C6.49199 12.9272 6.07273 12.463 5.80259 11.9119C5.53245 11.3609 5.42227 10.7451 5.48454 10.1346C5.54681 9.52408 5.77905 8.94326 6.15488 8.45811C6.53071 7.97296 7.03507 7.60293 7.61065 7.39005C8.18624 7.17718 8.80999 7.12998 9.41106 7.25384C10.0121 7.37769 10.5664 7.66762 11.011 8.0907C11.4555 8.51378 11.7725 9.05305 11.9259 9.64726C11.9984 9.92827 12.1796 10.169 12.4296 10.3164C12.6796 10.4638 12.9779 10.5059 13.2589 10.4334C13.5399 10.3609 13.7806 10.1797 13.9281 9.9297C14.0755 9.67971 14.1176 9.3814 14.045 9.10038C13.8321 8.2764 13.4298 7.51348 12.8701 6.87235C12.3104 6.23121 11.6088 5.72954 10.8212 5.40727C10.0335 5.08499 9.18146 4.951 8.33288 5.01595C7.48431 5.0809 6.6626 5.34301 5.93315 5.78141C5.2037 6.21982 4.58663 6.82242 4.13105 7.54127C3.67547 8.26012 3.39395 9.07537 3.30889 9.92217C3.22383 10.769 3.33758 11.6239 3.64109 12.419C3.94459 13.2141 4.42948 13.9274 5.05716 14.5021C3.57141 15.1467 2.28001 16.1685 1.31106 17.4662C1.13684 17.6983 1.06193 17.99 1.10282 18.2773C1.14372 18.5646 1.29707 18.8239 1.52913 18.9981C1.7612 19.1724 2.05297 19.2473 2.34026 19.2064C2.62755 19.1655 2.88683 19.0121 3.06106 18.7801C3.7203 17.8939 4.57839 17.175 5.56624 16.681C6.5541 16.1871 7.64412 15.932 8.74856 15.9363C9.03865 15.9363 9.31684 15.8211 9.52196 15.616C9.72708 15.4108 9.84232 15.1326 9.84232 14.8426Z" fill="white"/>
</g>
</svg>
