<svg preserveAspectRatio="none" width="100%" height="100%" overflow="visible" style="display: block;" viewBox="0 0 35 35" fill="none" xmlns="http://www.w3.org/2000/svg">
<g id="article 1">
<path id="Vector" d="M29.5312 5.46875H5.46875C4.88859 5.46875 4.33219 5.69922 3.92195 6.10945C3.51172 6.51969 3.28125 7.07609 3.28125 7.65625V27.3438C3.28125 27.9239 3.51172 28.4803 3.92195 28.8905C4.33219 29.3008 4.88859 29.5312 5.46875 29.5312H29.5312C30.1114 29.5312 30.6678 29.3008 31.078 28.8905C31.4883 28.4803 31.7188 27.9239 31.7188 27.3438V7.65625C31.7188 7.07609 31.4883 6.51969 31.078 6.10945C30.6678 5.69922 30.1114 5.46875 29.5312 5.46875ZM29.5312 27.3438H5.46875V7.65625H29.5312V27.3438ZM25.1562 13.125C25.1562 13.4151 25.041 13.6933 24.8359 13.8984C24.6308 14.1035 24.3526 14.2188 24.0625 14.2188H10.9375C10.6474 14.2188 10.3692 14.1035 10.1641 13.8984C9.95898 13.6933 9.84375 13.4151 9.84375 13.125C9.84375 12.8349 9.95898 12.5567 10.1641 12.3516C10.3692 12.1465 10.6474 12.0312 10.9375 12.0312H24.0625C24.3526 12.0312 24.6308 12.1465 24.8359 12.3516C25.041 12.5567 25.1562 12.8349 25.1562 13.125ZM25.1562 17.5C25.1562 17.7901 25.041 18.0683 24.8359 18.2734C24.6308 18.4785 24.3526 18.5938 24.0625 18.5938H10.9375C10.6474 18.5938 10.3692 18.4785 10.1641 18.2734C9.95898 18.0683 9.84375 17.7901 9.84375 17.5C9.84375 17.2099 9.95898 16.9317 10.1641 16.7266C10.3692 16.5215 10.6474 16.4062 10.9375 16.4062H24.0625C24.3526 16.4062 24.6308 16.5215 24.8359 16.7266C25.041 16.9317 25.1562 17.2099 25.1562 17.5ZM25.1562 21.875C25.1562 22.1651 25.041 22.4433 24.8359 22.6484C24.6308 22.8535 24.3526 22.9688 24.0625 22.9688H10.9375C10.6474 22.9688 10.3692 22.8535 10.1641 22.6484C9.95898 22.4433 9.84375 22.1651 9.84375 21.875C9.84375 21.5849 9.95898 21.3067 10.1641 21.1016C10.3692 20.8965 10.6474 20.7812 10.9375 20.7812H24.0625C24.3526 20.7812 24.6308 20.8965 24.8359 21.1016C25.041 21.3067 25.1562 21.5849 25.1562 21.875Z" fill="white"/>
</g>
</svg>
