<svg preserveAspectRatio="none" width="100%" height="100%" overflow="visible" style="display: block;" viewBox="0 0 35 37.3724" fill="none" xmlns="http://www.w3.org/2000/svg">
<g id="house 1">
<path id="Vector" d="M31.5711 30.7068C29.4889 27.107 26.2801 24.5258 22.5354 23.3022C24.3877 22.1995 25.8268 20.5192 26.6317 18.5195C27.4367 16.5197 27.5629 14.311 26.9911 12.2325C26.4193 10.1541 25.181 8.32078 23.4664 7.0142C21.7518 5.70762 19.6557 5 17.5 5C15.3443 5 13.2482 5.70762 11.5336 7.0142C9.81903 8.32078 8.58074 10.1541 8.0089 12.2325C7.43707 14.311 7.56332 16.5197 8.36826 18.5195C9.17321 20.5192 10.6123 22.1995 12.4646 23.3022C8.71992 24.5244 5.51113 27.1057 3.42891 30.7068C3.35255 30.8314 3.3019 30.9699 3.27995 31.1143C3.258 31.2587 3.26519 31.406 3.30111 31.5476C3.33702 31.6892 3.40093 31.8221 3.48905 31.9386C3.57718 32.0551 3.68774 32.1527 3.81421 32.2258C3.94069 32.2988 4.08051 32.3458 4.22544 32.3639C4.37037 32.3821 4.51746 32.371 4.65804 32.3314C4.79862 32.2918 4.92983 32.2244 5.04395 32.1332C5.15806 32.042 5.25276 31.9289 5.32246 31.8006C7.89824 27.349 12.451 24.6912 17.5 24.6912C22.549 24.6912 27.1018 27.349 29.6775 31.8006C29.7472 31.9289 29.8419 32.042 29.9561 32.1332C30.0702 32.2244 30.2014 32.2918 30.342 32.3314C30.4825 32.371 30.6296 32.3821 30.7746 32.3639C30.9195 32.3458 31.0593 32.2988 31.1858 32.2258C31.3123 32.1527 31.4228 32.0551 31.5109 31.9386C31.5991 31.8221 31.663 31.6892 31.6989 31.5476C31.7348 31.406 31.742 31.2587 31.72 31.1143C31.6981 30.9699 31.6475 30.8314 31.5711 30.7068ZM9.84375 14.8475C9.84375 13.3332 10.2928 11.8529 11.1341 10.5939C11.9753 9.33482 13.1711 8.3535 14.5701 7.77402C15.9691 7.19453 17.5085 7.04291 18.9937 7.33833C20.4788 7.63375 21.843 8.36294 22.9138 9.43368C23.9845 10.5044 24.7137 11.8686 25.0091 13.3538C25.3046 14.839 25.1529 16.3784 24.5735 17.7774C23.994 19.1764 23.0126 20.3721 21.7536 21.2134C20.4945 22.0547 19.0143 22.5037 17.5 22.5037C15.4701 22.5015 13.524 21.6942 12.0886 20.2589C10.6533 18.8235 9.84592 16.8774 9.84375 14.8475Z" fill="white"/>
</g>
</svg>
