<svg preserveAspectRatio="none" width="100%" height="100%" overflow="visible" style="display: block;" viewBox="0 0 34.25 33.3441" fill="none" xmlns="http://www.w3.org/2000/svg">
<g id="house 1">
<path id="Vector" d="M29.6088 14.5777L18.6713 3.6402C18.2611 3.23027 17.7049 3 17.125 3C16.5451 3 15.9889 3.23027 15.5787 3.6402L4.64122 14.5777C4.43711 14.7803 4.27531 15.0215 4.16523 15.2871C4.05515 15.5528 3.99899 15.8378 4.00001 16.1254V29.2504C4.00001 29.5404 4.11525 29.8186 4.32037 30.0238C4.52548 30.2289 4.80368 30.3441 5.09376 30.3441H13.8438C14.1338 30.3441 14.412 30.2289 14.6172 30.0238C14.8223 29.8186 14.9375 29.5404 14.9375 29.2504V21.5941H19.3125V29.2504C19.3125 29.5404 19.4277 29.8186 19.6329 30.0238C19.838 30.2289 20.1162 30.3441 20.4063 30.3441H29.1563C29.4463 30.3441 29.7245 30.2289 29.9297 30.0238C30.1348 29.8186 30.25 29.5404 30.25 29.2504V16.1254C30.251 15.8378 30.1949 15.5528 30.0848 15.2871C29.9747 15.0215 29.8129 14.7803 29.6088 14.5777ZM28.0625 28.1566H21.5V20.5004C21.5 20.2103 21.3848 19.9321 21.1797 19.727C20.9745 19.5218 20.6963 19.4066 20.4063 19.4066H13.8438C13.5537 19.4066 13.2755 19.5218 13.0704 19.727C12.8652 19.9321 12.75 20.2103 12.75 20.5004V28.1566H6.18751V16.1254L17.125 5.18785L28.0625 16.1254V28.1566Z" fill="white"/>
</g>
</svg>
