<svg width="34" height="35" viewBox="0 0 34 35" fill="none" xmlns="http://www.w3.org/2000/svg">
<path d="M17.4186 13.1462C16.5466 13.0575 15.6693 13.2485 14.9069 13.6929C14.1444 14.1374 13.534 14.8136 13.1592 15.6289C12.7845 16.4443 12.6637 17.3589 12.8135 18.2477C12.9632 19.1364 13.3761 19.9558 13.9957 20.5936C14.6153 21.2314 15.4113 21.6565 16.2746 21.8107C17.138 21.9648 18.0265 21.8405 18.8186 21.4547C19.6106 21.0689 20.2675 20.4406 20.6992 19.6557C21.131 18.8708 21.3165 17.9677 21.2304 17.07C21.1322 16.0638 20.699 15.1234 20.0044 14.4083C19.3097 13.6931 18.3962 13.2473 17.4186 13.1462ZM27.6518 17.5C27.6491 17.9755 27.6152 18.4504 27.5502 18.9212L30.5525 21.3452C30.6832 21.4568 30.7713 21.6124 30.8011 21.7845C30.8309 21.9566 30.8004 22.134 30.7152 22.2852L27.875 27.3438C27.7887 27.4935 27.6539 27.607 27.4943 27.6644C27.3346 27.7218 27.1604 27.7194 27.0024 27.6575L24.0207 26.4216C23.8563 26.3542 23.6782 26.3298 23.5024 26.3507C23.3266 26.3716 23.1586 26.4371 23.0134 26.5412C22.5583 26.8638 22.0801 27.1503 21.583 27.3984C21.4267 27.4766 21.2915 27.5933 21.1893 27.738C21.0872 27.8827 21.0212 28.0511 20.9973 28.2283L20.5504 31.502C20.521 31.6749 20.4342 31.832 20.3049 31.9463C20.1755 32.0606 20.0116 32.1252 19.8411 32.1289H14.1607C13.9931 32.1259 13.8314 32.0642 13.7024 31.954C13.5734 31.8438 13.4846 31.6916 13.4509 31.5226L13.0046 28.2536C12.9796 28.0745 12.9119 27.9045 12.8076 27.7587C12.7034 27.613 12.5657 27.496 12.407 27.4183C11.9104 27.1715 11.4338 26.8842 10.9819 26.559C10.8372 26.4553 10.6697 26.3904 10.4945 26.37C10.3194 26.3496 10.142 26.3744 9.97848 26.4421L6.99751 27.6773C6.83953 27.7393 6.6654 27.7418 6.50577 27.6845C6.34615 27.6273 6.21128 27.5139 6.12493 27.3643L3.28473 22.3057C3.19934 22.1545 3.16883 21.9771 3.19862 21.805C3.22842 21.6329 3.31658 21.4772 3.44743 21.3657L5.98481 19.3149C6.12382 19.2013 6.23308 19.0538 6.30266 18.8857C6.37224 18.7176 6.39994 18.5343 6.38325 18.3524C6.35934 18.0674 6.34473 17.783 6.34473 17.4979C6.34473 17.2129 6.35868 16.9326 6.38325 16.6537C6.39811 16.4729 6.36905 16.2912 6.29869 16.1248C6.22832 15.9585 6.11886 15.8127 5.98016 15.7008L3.44411 13.65C3.31539 13.538 3.22908 13.3829 3.2003 13.2119C3.17153 13.0409 3.20212 12.8649 3.28673 12.7148L6.12692 7.65625C6.21317 7.50654 6.348 7.39297 6.50763 7.33557C6.66726 7.27817 6.84145 7.28061 6.9995 7.34248L9.98114 8.57842C10.1456 8.64581 10.3237 8.67016 10.4995 8.64928C10.6753 8.6284 10.8433 8.56295 10.9885 8.45879C11.4436 8.13622 11.9217 7.84965 12.4189 7.60156C12.5752 7.52336 12.7104 7.40674 12.8126 7.26201C12.9147 7.11727 12.9807 6.94887 13.0046 6.77168L13.4515 3.49795C13.4809 3.32506 13.5677 3.16802 13.697 3.05369C13.8264 2.93935 13.9903 2.87481 14.1607 2.87109H19.8411C20.0088 2.87408 20.1704 2.93576 20.2995 3.04598C20.4285 3.1562 20.5172 3.30838 20.551 3.47744L20.9973 6.74639C21.0223 6.92553 21.09 7.09553 21.1943 7.24127C21.2985 7.387 21.4362 7.50396 21.5949 7.58174C22.0915 7.82849 22.5681 8.11583 23.02 8.44102C23.1647 8.54466 23.3322 8.60961 23.5074 8.63001C23.6825 8.65042 23.8599 8.62564 24.0234 8.55791L27.0044 7.32266C27.1624 7.26073 27.3365 7.25818 27.4961 7.31545C27.6557 7.37273 27.7906 7.48615 27.877 7.63574L30.7172 12.6943C30.8025 12.8455 30.8331 13.0229 30.8033 13.195C30.7735 13.3671 30.6853 13.5228 30.5545 13.6343L28.0171 15.6851C27.8775 15.7983 27.7676 15.9457 27.6974 16.1138C27.6272 16.2819 27.599 16.4654 27.6153 16.6476C27.6372 16.9306 27.6518 17.2149 27.6518 17.5Z" stroke="#E46966" stroke-width="2" stroke-linecap="round" stroke-linejoin="round"/>
</svg>